<svg width="2486" height="1708" viewBox="0 0 2486 1708" fill="none" xmlns="http://www.w3.org/2000/svg">
<g clip-path="url(#clip0_685_17)">
<path d="M1242 2C1242.89 2 1243.78 2 1245.34 2.91939C1246.01 566.451 1246.01 1129.06 1246.02 1691.67C1246.02 1697.01 1246.06 1702.34 1245.25 1707.79C1214.35 1705.25 1184.27 1702.63 1154.19 1699.94C1102.36 1695.31 1050.53 1690.59 998.688 1685.96C938.569 1680.6 878.437 1675.37 818.324 1669.95C775.747 1666.1 733.204 1661.88 690.624 1658.08C636.115 1653.22 581.572 1648.74 527.065 1643.87C469.58 1638.74 412.129 1633.22 354.645 1628.09C300.13 1623.22 245.583 1618.71 191.062 1613.9C143.482 1609.7 95.9126 1605.36 48.3506 1600.95C32.8804 1599.52 17.4491 1597.66 2 1596C2 1122.61 2 649.221 2.75008 174.522C36.0918 168.807 68.6905 164.454 101.274 159.988C156.223 152.455 211.168 144.892 266.104 137.262C301.971 132.281 337.805 127.067 373.677 122.126C415.469 116.368 457.293 110.838 499.091 105.127C535.621 100.136 572.135 95.0221 608.658 89.9769C663.281 82.4313 717.907 74.905 772.53 67.3583C843.276 57.5841 914.02 47.7961 984.765 38.0173C1031.82 31.5132 1078.87 24.9765 1125.93 18.5289C1152.26 14.9223 1178.62 11.5672 1204.93 7.90067C1217.32 6.17463 1229.65 3.98148 1242 2ZM133.676 1395.59C194.002 1400.52 254.328 1405.45 315.837 1410.48C315.837 1395.1 315.837 1380.86 315.837 1366.63C315.837 1351.96 315.837 1337.3 315.837 1322.64C315.837 1308.31 315.837 1293.97 315.837 1279.64C315.837 1265.31 315.837 1250.98 315.837 1236.65C315.837 1221.99 315.801 1207.33 315.847 1192.66C315.891 1178.49 315.631 1164.3 316.053 1149.55C417.845 1152.04 518.285 1154.49 619.209 1156.96C619.209 1100.63 619.209 1045.8 619.209 989.665C518.032 990.634 417.323 991.598 316.546 992.563C316.546 956.986 316.546 922.879 316.546 888.399C417.901 884.468 518.619 881.957 619.183 877.902C619.183 821.537 619.183 766.658 619.183 710.655C453.992 721.932 289.368 733.17 124.534 744.422C124.534 961.61 124.534 1177.73 124.534 1394.02C127.313 1394.55 129.586 1394.98 133.676 1395.59ZM1205.32 687.602C1205.56 683.741 1204.61 680.985 1199.88 681.495C1197.9 681.709 1195.89 681.678 1193.89 681.78C1149.98 684.025 1106.06 686.177 1062.16 688.542C994.638 692.178 927.131 696.031 859.611 699.662C804.73 702.613 749.839 705.365 694.954 708.245C692.7 708.363 690.466 708.878 687.76 709.276C687.76 764.823 687.76 819.969 687.76 876.46C860.192 872.279 1032.2 868.109 1203.79 863.948C1204.5 862.564 1205.05 861.987 1205.05 861.408C1205.17 804.107 1205.25 746.807 1205.32 687.602ZM1161.16 1167.51C1175.66 1167.88 1190.14 1168.07 1204.44 1168.17C1206.41 1150.13 1205.71 993.45 1203.58 985.569C1031.96 986.425 860.125 987.281 687.976 988.139C687.976 1044.35 687.976 1099.73 687.976 1155.62C845.546 1159.58 1002.38 1163.53 1161.16 1167.51ZM1113 1286.02C1061.06 1283.78 1009.13 1281.56 957.194 1279.3C926.567 1277.97 895.942 1276.58 865.315 1275.24C808.723 1272.75 752.131 1270.26 695.536 1267.82C693.001 1267.71 690.445 1268.1 687.705 1268.27C687.705 1323.84 687.705 1378.72 687.705 1433.49C699.538 1436.04 1195.6 1473.46 1204.58 1470.84C1206.42 1454.43 1205.72 1297.57 1203.67 1290.15C1174.18 1288.8 1144.57 1287.44 1113 1286.02Z" fill="#C83538"/>
<path d="M1246.08 1707.67C1246.06 1702.34 1246.02 1697.01 1246.02 1691.67C1246.01 1129.06 1246.01 566.451 1246.01 2.9194C1248.78 2.00001 1251.56 2.00001 1255.58 2.72277C1259.8 3.75094 1262.78 3.96296 1265.74 4.37554C1326.56 12.866 1387.37 21.4618 1448.21 29.8656C1513.32 38.8597 1578.46 47.6302 1643.57 56.5875C1691.59 63.193 1739.59 69.9538 1787.6 76.6237C1853.04 85.7154 1918.48 94.8501 1983.93 103.847C2039.19 111.441 2094.47 118.787 2149.72 126.391C2191.16 132.094 2232.57 138.087 2274 143.852C2336.47 152.546 2398.94 161.21 2461.43 169.734C2470.23 170.933 2479.14 171.266 2488 172C2488 646.72 2488 1121.44 2487.15 1596.73C2464.49 1599.22 2442.68 1601.14 2420.87 1603.04C2378.23 1606.75 2335.59 1610.42 2292.95 1614.16C2255.93 1617.42 2218.92 1620.74 2181.91 1624.04C2122.08 1629.39 2062.26 1634.75 2002.44 1640.1C1957.83 1644.09 1913.22 1648.04 1868.62 1652.1C1822.04 1656.35 1775.48 1660.85 1728.9 1664.99C1670.72 1670.16 1612.52 1675.01 1554.34 1680.13C1514.35 1683.65 1474.38 1687.39 1434.4 1691.05C1398.72 1694.32 1363.05 1697.7 1327.36 1700.87C1300.28 1703.27 1273.17 1705.41 1246.08 1707.67ZM2184.44 1403.04C2185.73 1406.91 2188.89 1406.39 2191.88 1406.18C2201.51 1405.5 2211.15 1404.8 2220.78 1404.11C2261.32 1401.21 2301.86 1398.33 2342.39 1395.38C2350.19 1394.82 2357.96 1393.96 2366.62 1393.15C2334.92 1298.21 2303.56 1204.29 2272.4 1110.97C2284.52 1101.75 2295.95 1093.69 2306.65 1084.77C2329.79 1065.48 2345.53 1041.26 2353.93 1012.21C2365.11 973.526 2367.62 934.243 2362.29 894.476C2349.91 801.974 2282.77 737.784 2189.88 730.123C2155.69 727.304 2121.39 725.894 2087.13 723.968C2057.53 722.304 2027.91 720.861 1998.3 719.244C1956.38 716.954 1914.47 714.58 1872.56 712.303C1870.35 712.183 1868.12 712.628 1866.01 712.8C1864 733.546 1864.91 1422.36 1867.07 1430.15C1927.25 1425.72 1987.55 1421.28 2048.81 1416.77C2048.81 1327.77 2048.81 1239.97 2048.81 1151.08C2067.74 1151.08 2085.62 1151.08 2104.45 1151.08C2130.8 1234.01 2157.39 1317.71 2184.44 1403.04ZM1286.04 693.193C1286.15 749.498 1286.25 805.804 1286.38 862.109C1286.38 862.364 1286.74 862.629 1286.96 862.869C1287.18 863.117 1287.43 863.34 1287.66 863.581C1336.93 867.222 1795.46 876.981 1803.68 874.564C1805.54 845.539 1804.64 716.932 1802.37 708.646C1630.74 699.47 1458.93 690.286 1286.56 681.07C1286.34 685.377 1286.19 688.307 1286.04 693.193ZM1802.39 988.324C1801.06 988.219 1799.73 988.026 1798.4 988.02C1630.43 987.269 1462.46 986.529 1294.49 985.817C1291.93 985.806 1289.38 986.151 1286.66 986.342C1286.66 1047.15 1286.66 1107.27 1286.66 1168.41C1459.34 1164.15 1631.37 1159.91 1804.09 1155.66C1804.09 1150.85 1804.09 1147.23 1804.09 1143.61C1804.09 1114.62 1804.13 1085.62 1804.07 1056.63C1804.03 1034.3 1803.86 1011.98 1802.39 988.324ZM1706.94 1441.94C1739.08 1439.54 1771.23 1437.13 1803.44 1434.72C1803.44 1378.59 1803.44 1323.47 1803.44 1267.34C1630.64 1274.92 1458.51 1282.4 1286.56 1290.19C1284.53 1320.86 1285.47 1464.45 1287.69 1472.01C1290.64 1472.01 1293.63 1472.19 1296.6 1471.98C1327.82 1469.75 1359.04 1467.48 1390.26 1465.18C1422.13 1462.83 1454.01 1460.39 1485.89 1458.06C1517.1 1455.78 1548.33 1453.64 1579.54 1451.35C1621.39 1448.28 1663.22 1445.12 1706.94 1441.94Z" fill="#ED3337"/>
<path d="M132.767 1395.5C129.586 1394.98 127.313 1394.55 124.534 1394.02C124.534 1177.73 124.534 961.61 124.534 744.422C289.368 733.17 453.992 721.932 619.183 710.655C619.183 766.658 619.183 821.537 619.183 877.902C518.619 881.957 417.9 884.468 316.546 888.399C316.546 922.879 316.546 956.986 316.546 992.563C417.323 991.598 518.032 990.634 619.209 989.665C619.209 1045.8 619.209 1100.63 619.209 1156.96C518.285 1154.49 417.845 1152.04 316.053 1149.55C315.631 1164.3 315.891 1178.49 315.847 1192.66C315.801 1207.33 315.837 1221.99 315.837 1236.65C315.837 1250.98 315.837 1265.31 315.837 1279.64C315.837 1293.97 315.837 1308.31 315.837 1322.64C315.837 1337.3 315.837 1351.96 315.837 1366.63C315.837 1380.86 315.837 1395.1 315.837 1410.48C254.327 1405.45 194.002 1400.52 132.767 1395.5Z" fill="#FEFDFD"/>
<path d="M1205.32 688.554C1205.25 746.807 1205.17 804.107 1205.05 861.408C1205.05 861.987 1204.5 862.564 1203.79 863.948C1032.2 868.109 860.192 872.279 687.76 876.46C687.76 819.969 687.76 764.823 687.76 709.276C690.467 708.878 692.7 708.363 694.954 708.245C749.839 705.365 804.73 702.613 859.611 699.662C927.131 696.031 994.639 692.178 1062.16 688.542C1106.06 686.177 1149.98 684.025 1193.89 681.78C1195.89 681.678 1197.9 681.709 1199.88 681.495C1204.61 680.985 1205.56 683.741 1205.32 688.554Z" fill="#FEFDFD"/>
<path d="M1160.19 1167.49C1002.38 1163.53 845.545 1159.58 687.976 1155.62C687.976 1099.73 687.976 1044.35 687.976 988.139C860.125 987.281 1031.96 986.425 1203.58 985.569C1205.71 993.45 1206.41 1150.13 1204.44 1168.17C1190.14 1168.07 1175.66 1167.88 1160.19 1167.49Z" fill="#FEFDFD"/>
<path d="M1113.98 1286.05C1144.57 1287.44 1174.18 1288.8 1203.67 1290.15C1205.72 1297.57 1206.42 1454.43 1204.58 1470.84C1195.6 1473.46 699.539 1436.04 687.705 1433.49C687.705 1378.72 687.705 1323.84 687.705 1268.27C690.445 1268.1 693.002 1267.71 695.537 1267.82C752.131 1270.26 808.723 1272.75 865.315 1275.24C895.942 1276.58 926.567 1277.97 957.194 1279.3C1009.13 1281.56 1061.06 1283.78 1113.98 1286.05Z" fill="#FEFDFD"/>
<path d="M2184.21 1402.23C2157.39 1317.71 2130.8 1234.01 2104.45 1151.08C2085.62 1151.08 2067.74 1151.08 2048.81 1151.08C2048.81 1239.97 2048.81 1327.77 2048.81 1416.77C1987.55 1421.28 1927.25 1425.72 1867.07 1430.15C1864.91 1422.36 1864 733.546 1866.01 712.8C1868.12 712.628 1870.35 712.183 1872.56 712.303C1914.47 714.58 1956.38 716.954 1998.3 719.244C2027.91 720.861 2057.53 722.304 2087.13 723.968C2121.39 725.894 2155.69 727.304 2189.88 730.123C2282.77 737.784 2349.91 801.974 2362.29 894.476C2367.62 934.243 2365.11 973.526 2353.93 1012.21C2345.53 1041.26 2329.79 1065.48 2306.65 1084.77C2295.95 1093.69 2284.52 1101.75 2272.4 1110.97C2303.56 1204.29 2334.92 1298.21 2366.62 1393.15C2357.96 1393.96 2350.19 1394.82 2342.39 1395.38C2301.86 1398.33 2261.32 1401.21 2220.78 1404.11C2211.15 1404.8 2201.51 1405.5 2191.88 1406.18C2188.89 1406.39 2185.73 1406.91 2184.21 1402.23ZM2123.03 871.771C2098.51 871.058 2073.99 870.345 2048.95 869.616C2048.95 914.34 2048.95 957.768 2048.95 1001.21C2050.33 1001.65 2051.24 1002.2 2052.15 1002.2C2079.78 1002.18 2107.43 1002.67 2135.03 1001.74C2144.06 1001.43 2153.4 998.44 2161.84 994.869C2178.49 987.822 2188.98 974.895 2192.77 957.017C2195.64 943.495 2195.44 929.922 2192.47 916.416C2187.25 892.656 2172.16 878.859 2148.73 874.145C2140.97 872.583 2132.89 872.545 2123.03 871.771Z" fill="#FEFEFE"/>
<path d="M1286.04 692.215C1286.19 688.307 1286.34 685.377 1286.56 681.071C1458.93 690.286 1630.74 699.47 1802.37 708.646C1804.64 716.932 1805.54 845.539 1803.68 874.564C1795.46 876.981 1336.93 867.222 1287.66 863.578C1287.43 863.34 1287.18 863.117 1286.96 862.87C1286.74 862.629 1286.38 862.364 1286.38 862.109C1286.25 805.804 1286.15 749.498 1286.04 692.215Z" fill="#FEFDFD"/>
<path d="M1803.07 988.99C1803.86 1011.98 1804.03 1034.3 1804.07 1056.63C1804.13 1085.62 1804.09 1114.62 1804.09 1143.61C1804.09 1147.23 1804.09 1150.85 1804.09 1155.66C1631.38 1159.91 1459.34 1164.15 1286.66 1168.41C1286.66 1107.27 1286.66 1047.15 1286.66 986.342C1289.38 986.151 1291.94 985.806 1294.49 985.817C1462.46 986.529 1630.43 987.269 1798.4 988.02C1799.73 988.026 1801.06 988.219 1803.07 988.99Z" fill="#FEFDFD"/>
<path d="M1706 1441.97C1663.22 1445.12 1621.39 1448.28 1579.54 1451.35C1548.33 1453.64 1517.1 1455.78 1485.89 1458.06C1454.01 1460.39 1422.13 1462.83 1390.26 1465.18C1359.04 1467.48 1327.82 1469.75 1296.6 1471.98C1293.63 1472.19 1290.64 1472.01 1287.69 1472.01C1285.47 1464.45 1284.53 1320.86 1286.56 1290.19C1458.51 1282.4 1630.64 1274.92 1803.44 1267.34C1803.44 1323.47 1803.44 1378.59 1803.44 1434.72C1771.23 1437.13 1739.08 1439.54 1706 1441.97Z" fill="#FEFDFD"/>
<path d="M2123.99 871.791C2132.89 872.545 2140.97 872.583 2148.73 874.145C2172.16 878.859 2187.25 892.656 2192.47 916.416C2195.44 929.922 2195.64 943.495 2192.77 957.017C2188.98 974.895 2178.49 987.822 2161.84 994.869C2153.4 998.44 2144.06 1001.43 2135.03 1001.74C2107.43 1002.67 2079.78 1002.18 2052.15 1002.2C2051.24 1002.2 2050.33 1001.65 2048.95 1001.21C2048.95 957.768 2048.95 914.34 2048.95 869.616C2073.99 870.345 2098.51 871.058 2123.99 871.791Z" fill="#ED3439"/>
</g>
<defs>
<clipPath id="clip0_685_17">
<rect width="2486" height="1708" fill="white"/>
</clipPath>
</defs>
</svg>
